<svg version="1.2" xmlns="http://www.w3.org/2000/svg" viewBox="0 0 24 24" width="24" height="24"><style></style><path fill-rule="evenodd" d="m0 5.8c0-3.2 2.6-5.8 5.8-5.8h12.4c3.2 0 5.8 2.6 5.8 5.8v12.4c0 3.2-2.6 5.8-5.8 5.8h-12.4c-3.2 0-5.8-2.6-5.8-5.8zm8.8 10.9l2-2c0.4-0.4 0.4-1 0-1.3-0.3-0.4-0.9-0.4-1.2 0l-2.1 2.1-2.1-2.1c-0.3-0.4-0.9-0.4-1.2 0-0.4 0.3-0.4 0.9 0 1.3l2 2-2 2.1c-0.4 0.3-0.4 0.9 0 1.3q0.2 0.2 0.6 0.2 0.4 0 0.6-0.2l2.1-2.1 2.1 2.1q0.3 0.2 0.6 0.2 0.4 0 0.6-0.2c0.4-0.4 0.4-1 0-1.3zm2.4-9.5c0-0.5-0.4-0.9-0.9-0.9h-5.4c-0.5 0-0.9 0.4-0.9 0.9 0 0.5 0.4 0.9 0.9 0.9h5.4c0.5 0 0.9-0.4 0.9-0.9zm9 11.7c0-0.5-0.4-0.9-0.9-0.9h-5.4c-0.5 0-0.9 0.4-0.9 0.9 0 0.5 0.4 0.9 0.9 0.9h5.4c0.5 0 0.9-0.4 0.9-0.9zm0-4.5c0-0.5-0.4-0.9-0.9-0.9h-5.4c-0.5 0-0.9 0.4-0.9 0.9 0 0.5 0.4 0.9 0.9 0.9h5.4c0.5 0 0.9-0.4 0.9-0.9zm0-7.2c0-0.5-0.4-0.9-0.9-0.9h-1.8v-1.8c0-0.5-0.4-0.9-0.9-0.9-0.5 0-0.9 0.4-0.9 0.9v1.8h-1.8c-0.5 0-0.9 0.4-0.9 0.9 0 0.5 0.4 0.9 0.9 0.9h1.8v1.8c0 0.5 0.4 0.9 0.9 0.9 0.5 0 0.9-0.4 0.9-0.9v-1.8h1.8c0.5 0 0.9-0.4 0.9-0.9z"/></svg>